# xmcd CD database file generated by OrangeCD 6.4
#
# Track frame offsets:
#	154
#	22507
#	37150
#	59213
#	87781
#	105846
#	120377
#	141050
#
# Disc length: 2158 seconds
#
# Revision: 0
# Processed by: cddbd v1.5.2PL0 Copyright (c) Steve Scherf et al.
# Submitted via: OrangeCD 6.4
#
DISCID=5c086c08
DTITLE=Valerie Barrymore - Foundation of Funk
DYEAR=2000
DGENRE=
TTITLE0=Foundation Of Funk
TTITLE1=Boy You Know
TTITLE2=Love Me Now
TTITLE3=Desire
TTITLE4=Transition
TTITLE5=Can't Go
TTITLE6=Nasty
TTITLE7=Love Me Now (Dance Mix)
EXTD=
EXTT0=
EXTT1=
EXTT2=
EXTT3=
EXTT4=
EXTT5=
EXTT6=
EXTT7=
PLAYORDER=
